PathFileType	4	(X/Y/Z)	C:\Users\dell\Documents\OpenSim\4.1\20210318\TRC_File\LX_20210318_static_0001.trc
DataRate	CameraRate	NumFrames	NumMarkers	Units	OrigDataRate	OrigDataStartFrame	OrigNumFrames
100.000000	100.000000	4	38	mm	100.000000	37	300
Frame#	Time	Sternum			R.Acromium			L.Acromium			R.Arm			L.Arm			R.Hand			L.Hand			R.ASIS			L.ASIS			V.Sacral			R.Thigh.Upper			R.Thigh.Front			R.Thigh.Rear			R.Knee.Lat			R.Knee.Med			R.Shank.Upper			R.Shank.Front			R.Shank.Rear			R.Ankle.Lat			R.Ankle.Med			R.Heel			R.Toe.Lat			R.Toe.Med			R.Toe.Tip			L.Thigh.Upper			L.Thigh.Front			L.Thigh.Rear			L.Knee.Lat			L.Knee.Med			L.Shank.Upper			L.Shank.Front			L.Shank.Rear			L.Ankle.Lat			L.Ankle.Med			L.Heel			L.Toe.Lat			L.Toe.Med			L.Toe.Tip			
		X1	Y1	Z1	X2	Y2	Z2	X3	Y3	Z3	X4	Y4	Z4	X5	Y5	Z5	X6	Y6	Z6	X7	Y7	Z7	X8	Y8	Z8	X9	Y9	Z9	X10	Y10	Z10	X11	Y11	Z11	X12	Y12	Z12	X13	Y13	Z13	X14	Y14	Z14	X15	Y15	Z15	X16	Y16	Z16	X17	Y17	Z17	X18	Y18	Z18	X19	Y19	Z19	X20	Y20	Z20	X21	Y21	Z21	X22	Y22	Z22	X23	Y23	Z23	X24	Y24	Z24	X25	Y25	Z25	X26	Y26	Z26	X27	Y27	Z27	X28	Y28	Z28	X29	Y29	Z29	X30	Y30	Z30	X31	Y31	Z31	X32	Y32	Z32	X33	Y33	Z33	X34	Y34	Z34	X35	Y35	Z35	X36	Y36	Z36	X37	Y37	Z37	X38	Y38	Z38	

38	0.37	-102.447135925293	1294.548095703125	-6.205600738525391	-228.4238586425781	1449.435913085938	124.2122421264648	-226.6123352050781	1459.691528320313	-138.1343078613281	-302.5612182617188	1422.1767578125	429.3247680664063	-280.8043212890625	1428.048950195313	-450.4344177246094	-296.56982421875	1416.84765625	680.5045166015625	-246.6666564941406	1409.22314453125	-682.6405029296875	-133.9726104736328	972.2415161132813	129.7838287353516	-118.3314056396484	960.6895141601563	-101.9063568115234	-313.6601257324219	964.2900390625	-6.2330641746521	-217.1320190429688	645.97900390625	168.3812103271484	-154.6464385986328	616.9003295898438	99.02004241943359	-223.912841796875	554.214599609375	166.2102508544922	-248.0462036132813	465.1366577148438	169.0801239013672	-251.5460052490234	461.6324462890625	39.56112670898438	-255.8647308349609	408.2772827148438	168.9537506103516	-206.9942474365234	357.9667358398438	103.2011947631836	-273.2012329101563	289.4852294921875	175.0486145019531	-292.9615478515625	55.87547302246094	154.7756805419922	-276.9902038574219	81.82662963867188	70.23810577392578	-331.1087646484375	25.38461303710938	97.57006072998047	-175.2521514892578	21.08514213562012	199.3218841552734	-122.6674270629883	20.35608863830566	108.4811859130859	-82.97982788085938	25.07263565063477	142.6435699462891	-190.5275726318359	667.54150390625	-163.7727813720703	-147.8394317626953	627.5277709960938	-95.24247741699219	-196.6876373291016	570.1834716796875	-161.4280395507813	-218.0950164794922	463.4527282714844	-163.9441070556641	-273.8127746582031	457.817138671875	-44.4951286315918	-225.4105377197266	402.9732360839844	-164.6986236572266	-204.2686614990234	357.3641967773438	-98.43733215332031	-242.2488098144531	297.6261291503906	-167.9551849365234	-288.4173889160156	53.67350769042969	-150.9615325927734	-273.6652526855469	75.93487548828125	-62.5323371887207	-339.219970703125	24.73128509521484	-94.14314270019531	-183.6049499511719	20.81416702270508	-188.5387573242188	-131.6011962890625	22.63158988952637	-102.7011871337891	-92.28527069091797	24.33386039733887	-140.1790466308594	
39	0.38	-102.4145202636719	1294.53759765625	-6.231378078460693	-228.3855590820313	1449.435791015625	124.213264465332	-226.5985107421875	1459.6572265625	-138.1496887207031	-302.494384765625	1422.168212890625	429.3448791503906	-280.7962036132813	1427.968627929688	-450.4234313964844	-296.4580688476563	1416.856567382813	680.4929809570313	-246.6587982177734	1409.137573242188	-682.6425170898438	-133.8881530761719	972.2385864257813	129.8008117675781	-118.2441864013672	960.669189453125	-101.8927536010742	-313.5741577148438	964.2854614257813	-6.226382255554199	-217.0967407226563	645.9869995117188	168.4058074951172	-154.6070861816406	616.9102172851563	99.03609466552734	-223.9063262939453	554.1983642578125	166.2145080566406	-248.0426483154297	465.1294860839844	169.0752105712891	-251.5265197753906	461.6400756835938	39.57231521606445	-255.8524780273438	408.2879028320313	168.9588928222656	-206.9763336181641	357.9687194824219	103.2128143310547	-273.1849975585938	289.4929504394531	175.0594024658203	-292.9691162109375	55.87306594848633	154.7837066650391	-276.9775695800781	81.81353759765625	70.25236511230469	-331.1166687011719	25.39271545410156	97.56728363037109	-175.2528533935547	21.08671188354492	199.3203887939453	-122.6795349121094	20.36128616333008	108.4893493652344	-82.97963714599609	25.07572746276855	142.6286010742188	-190.4821014404297	667.5453491210938	-163.7631530761719	-147.7963256835938	627.51611328125	-95.23341369628906	-196.6383056640625	570.179443359375	-161.4313354492188	-218.0895538330078	463.4495544433594	-163.9398651123047	-273.8107299804688	457.8348083496094	-44.47575378417969	-225.3943939208984	402.9942932128906	-164.7068634033203	-204.2733001708984	357.3655700683594	-98.41538238525391	-242.2505340576172	297.6334838867188	-167.9578399658203	-288.4101867675781	53.67382431030273	-150.9523773193359	-273.6635437011719	75.92893218994141	-62.53583145141602	-339.211669921875	24.72715377807617	-94.14368438720703	-183.6049652099609	20.81068420410156	-188.5330352783203	-131.6011962890625	22.63498497009277	-102.6889114379883	-92.28737640380859	24.33048629760742	-140.1748352050781	
40	0.39	-102.3801574707031	1294.549438476563	-6.238020896911621	-228.340576171875	1449.431274414063	124.2064895629883	-226.6007537841797	1459.64697265625	-138.1747131347656	-302.4217224121094	1422.18310546875	429.3344116210938	-280.8045959472656	1427.923461914063	-450.430908203125	-296.3371887207031	1416.880981445313	680.487060546875	-246.6721801757813	1409.069580078125	-682.6638793945313	-133.8114776611328	972.2210083007813	129.8195037841797	-118.1609573364258	960.6600952148438	-101.8792953491211	-313.4803771972656	964.2973022460938	-6.21898365020752	-217.0745544433594	645.990478515625	168.4287414550781	-154.5839691162109	616.8909912109375	99.05869293212891	-223.8862609863281	554.18017578125	166.2248382568359	-248.0301818847656	465.1315612792969	169.0817108154297	-251.5143432617188	461.6425476074219	39.58641815185547	-255.8410491943359	408.2830505371094	168.9699401855469	-206.9639434814453	357.9573364257813	103.2232513427734	-273.1799011230469	289.4895935058594	175.0499725341797	-292.9608764648438	55.87428665161133	154.7825164794922	-276.9880065917969	81.82657623291016	70.24726104736328	-331.1135559082031	25.40415382385254	97.58051300048828	-175.2572326660156	21.08867645263672	199.3292388916016	-122.6639709472656	20.36571311950684	108.4900512695313	-82.98351287841797	25.06239318847656	142.6366577148438	-190.4253997802734	667.55029296875	-163.7440948486328	-147.7578582763672	627.51171875	-95.21993255615234	-196.6142578125	570.1674194335938	-161.4194946289063	-218.0727233886719	463.4494018554688	-163.9369964599609	-273.8202819824219	457.8340454101563	-44.4654655456543	-225.3895263671875	403.0025329589844	-164.6995391845703	-204.2689514160156	357.355224609375	-98.41738891601563	-242.2365417480469	297.6412353515625	-167.9575500488281	-288.4184265136719	53.682861328125	-150.9538269042969	-273.6621704101563	75.93923950195313	-62.53169631958008	-339.2162780761719	24.73406791687012	-94.16468048095703	-183.5970001220703	20.81808662414551	-188.5356750488281	-131.5990142822266	22.62823677062988	-102.6877899169922	-92.28426361083984	24.33156204223633	-140.1735687255859	
41	0.4	-102.3483810424805	1294.539306640625	-6.246885776519775	-228.3089141845703	1449.427856445313	124.1952056884766	-226.6160278320313	1459.619262695313	-138.1807250976563	-302.336669921875	1422.212158203125	429.331298828125	-280.8228149414063	1427.917114257813	-450.4578552246094	-296.2242431640625	1416.912475585938	680.4857788085938	-246.6976470947266	1409.021118164063	-682.6760864257813	-133.7433319091797	972.2141723632813	129.8178100585938	-118.0856246948242	960.6358032226563	-101.8709869384766	-313.4069519042969	964.3001708984375	-6.216262817382813	-217.0352172851563	645.9922485351563	168.4737243652344	-154.5847015380859	616.8729248046875	99.06758117675781	-223.8463287353516	554.168212890625	166.2523498535156	-247.9991607666016	465.1343078613281	169.0985870361328	-251.4892883300781	461.6461181640625	39.59250259399414	-255.8298797607422	408.2698059082031	168.9681549072266	-206.9413452148438	357.9491882324219	103.224723815918	-273.1717834472656	289.4844970703125	175.0589599609375	-292.9671020507813	55.87619781494141	154.7876129150391	-276.9869079589844	81.81978607177734	70.24839782714844	-331.1062316894531	25.40806007385254	97.57044982910156	-175.2626342773438	21.06459617614746	199.325439453125	-122.6678466796875	20.33843612670898	108.4925079345703	-82.97016906738281	25.058837890625	142.6295928955078	-190.3958740234375	667.54345703125	-163.7001800537109	-147.7068176269531	627.4907836914063	-95.1832275390625	-196.5955657958984	570.1665649414063	-161.3626861572266	-218.0772094726563	463.4547119140625	-163.8889617919922	-273.8039245605469	457.8275451660156	-44.45722961425781	-225.3809204101563	403.0113830566406	-164.6781311035156	-204.2490997314453	357.3438110351563	-98.3961181640625	-242.2384033203125	297.6399230957031	-167.9376525878906	-288.4152221679688	53.69229507446289	-150.9562072753906	-273.6593322753906	75.92334747314453	-62.53483200073242	-339.2129516601563	24.73154640197754	-94.14691925048828	-183.6008605957031	20.81825637817383	-188.5388946533203	-131.5875396728516	22.61917495727539	-102.6975784301758	-92.28910064697266	24.33209609985352	-140.1781158447266	
